<svg width="372" height="79" viewBox="0 0 372 79" fill="none" xmlns="http://www.w3.org/2000/svg">
<path d="M74.9788 43.9962C72.5235 44.0576 70.107 43.3786 68.0472 42.0484C66.1227 40.7865 64.6937 38.9044 64 36.7183L68.2193 35.1768C68.804 36.5196 69.7594 37.6701 70.9749 38.4948C72.2085 39.3168 73.6661 39.7427 75.1509 39.715C76.5781 39.7892 77.9866 39.3652 79.1329 38.5164C79.6317 38.1 80.0257 37.5735 80.2836 36.9789C80.5414 36.3842 80.656 35.7379 80.6182 35.0914C80.6241 34.4892 80.4838 33.8944 80.2093 33.3576C79.9704 32.8772 79.6582 32.4366 79.2837 32.0513C78.8099 31.6225 78.2726 31.2687 77.6906 31.0024C76.9727 30.6462 76.3772 30.375 75.904 30.1889C75.4304 30.004 74.7344 29.7543 73.8161 29.4397C72.6675 29.0404 71.8064 28.7265 71.2327 28.4982C70.4553 28.1692 69.7003 27.7902 68.9725 27.3634C68.1893 26.9502 67.4771 26.4156 66.8629 25.7797C66.3314 25.1589 65.9027 24.4578 65.5929 23.7029C64.9984 22.2637 64.8739 20.675 65.237 19.1616C65.6001 17.6481 66.4324 16.2865 67.6163 15.2691C69.3387 13.7565 71.6779 13.0001 74.6341 13C77.102 13 79.1326 13.5423 80.7258 14.6269C82.2723 15.6493 83.4077 17.1801 83.9333 18.9512L79.8002 20.321C79.385 19.3934 78.6838 18.6213 77.7981 18.1162C76.727 17.5252 75.5138 17.2365 74.2897 17.2811C73.0891 17.2126 71.8997 17.5441 70.9098 18.2231C70.5055 18.5347 70.1829 18.9387 69.9693 19.4008C69.7557 19.8629 69.6574 20.3694 69.6828 20.8774C69.6864 21.2669 69.7726 21.6513 69.9357 22.0054C70.0988 22.3596 70.3353 22.6755 70.6295 22.9326C71.2018 23.4927 71.8732 23.9426 72.61 24.2598C73.2993 24.5453 74.347 24.9305 75.7533 25.4156C76.6138 25.7301 77.2522 25.9656 77.6686 26.1221C78.085 26.2787 78.695 26.5426 79.4986 26.914C80.1428 27.1975 80.762 27.5341 81.3498 27.9203C81.8761 28.2967 82.3792 28.7042 82.8565 29.1404C83.3755 29.5881 83.819 30.1156 84.1701 30.7029C84.5043 31.3121 84.7643 31.9587 84.9447 32.629C85.1645 33.4167 85.2733 34.2309 85.268 35.0483C85.268 37.8458 84.3064 40.0363 82.3832 41.6197C80.4602 43.2042 77.992 43.9964 74.9788 43.9962ZM102.575 43.4825L92.2421 13.5138H97.0644L103.91 34.4063C104.288 35.5299 104.604 36.6733 104.857 37.8313C105.109 36.6732 105.425 35.5298 105.804 34.4063L112.563 13.5137H117.342L107.052 43.4825H102.575ZM126.469 43.4825V13.5138H145.154V17.7097H130.947V25.9295H140.116V30.1253H130.947V39.2867H146.101V43.4825H126.469ZM157.51 43.4825V13.5138H161.987V39.2014H176.711V43.4826L157.51 43.4825ZM193.587 17.795V43.4825H189.109V17.795H180.586V13.5138H202.112V17.795L193.587 17.795ZM211.368 43.4825V13.5138H230.053V17.7097H215.846V25.9295H225.016V30.1253H215.846V39.2867H231V43.4825H211.368Z" fill="#4A4A55"/>
<path fill-rule="evenodd" clip-rule="evenodd" d="M20.9105 2.53654C28.4004 -2.27909 38.7593 -0.033699 44.0043 7.54175C45.249 9.29984 46.1332 11.2911 46.6049 13.3987C47.0767 15.5062 47.1265 17.6877 46.7515 19.8149C46.3883 21.8464 45.6207 23.7824 44.495 25.506C46.1375 28.6669 46.6886 32.2902 46.0613 35.8028C45.6907 37.8881 44.8928 39.8724 43.7189 41.6288C42.5449 43.3852 41.0206 44.8751 39.2435 46.0031L26.0893 54.4634C18.6005 59.2788 8.24153 57.0343 2.99542 49.4582C1.75097 47.7 0.866945 45.7087 0.395204 43.6012C-0.0765361 41.4937 -0.126498 39.3123 0.24825 37.185C0.611769 35.1534 1.37971 33.2173 2.50567 31.4937C0.862485 28.3331 0.310965 24.7097 0.938422 21.1972C1.30923 19.1119 2.10712 17.1276 3.28108 15.3712C4.45504 13.6149 5.97925 12.125 7.75627 10.9968L20.9105 2.53654ZM13.599 50.3429C15.5581 51.0928 17.6928 51.2037 19.7149 50.6609C20.6387 50.406 21.5191 50.0066 22.3258 49.4763L35.1745 41.0214C36.2184 40.3433 37.1137 39.4477 37.8034 38.3919C38.493 37.3362 38.9618 36.1435 39.1798 34.8901C39.3999 33.6114 39.3706 32.3001 39.0934 31.0333C38.8162 29.7665 38.2967 28.5696 37.5655 27.5128C36.3746 25.7402 34.6856 24.3876 32.7265 23.6377C30.7674 22.8879 28.6326 22.7769 26.6105 23.3198C25.6873 23.5745 24.8074 23.9739 24.0015 24.5039L19.0986 27.7303C18.8547 27.8905 18.5886 28.0113 18.3094 28.0885C17.7001 28.2516 17.0571 28.2177 16.467 27.9916C15.877 27.7654 15.3683 27.3578 15.0097 26.8237C14.7896 26.505 14.6333 26.1441 14.5499 25.7623C14.4666 25.3804 14.4578 24.9852 14.5241 24.5998C14.5898 24.2222 14.731 23.8629 14.9388 23.5449C15.1465 23.2268 15.4163 22.9571 15.7307 22.7528L28.5807 14.297C28.8246 14.1367 29.0907 14.0159 29.37 13.9388C29.979 13.7756 30.6218 13.8093 31.2117 14.0354C31.8015 14.2614 32.31 14.669 32.6684 15.2029C33.061 15.7769 33.2445 16.4756 33.1866 17.1757L33.1427 17.6678L33.6202 17.8175C35.4267 18.3802 37.1268 19.2577 38.6471 20.4118L39.3051 20.9103L39.5471 20.1484C39.6767 19.7431 39.7793 19.3291 39.8541 18.9094C40.0743 17.6307 40.045 16.3194 39.7678 15.0526C39.4906 13.7857 38.9711 12.5888 38.2399 11.5321C37.0491 9.75945 35.36 8.4069 33.401 7.65707C31.4419 6.90724 29.3072 6.79626 27.2851 7.33912C26.3612 7.59398 25.4806 7.99347 24.674 8.52371L11.8251 16.9798C10.7811 17.6577 9.88569 18.553 9.19601 19.6087C8.50634 20.6643 8.03761 21.8569 7.81981 23.1102C7.59962 24.3889 7.62899 25.7002 7.90619 26.967C8.18338 28.2338 8.70283 29.4307 9.43404 30.4875C10.6249 32.2601 12.314 33.6127 14.2731 34.3626C16.2322 35.1124 18.367 35.2234 20.3892 34.6805C21.3122 34.4257 22.1921 34.0267 22.9984 33.4973L27.902 30.2697C28.1455 30.1096 28.4113 29.9889 28.6902 29.9118C29.2995 29.7487 29.9425 29.7825 30.5325 30.0087C31.1226 30.2349 31.6312 30.6425 31.9898 31.1766C32.2098 31.4953 32.3662 31.8561 32.4497 32.2379C32.5333 32.6196 32.5423 33.0148 32.4764 33.4002C32.4104 33.7778 32.2689 34.137 32.0611 34.455C31.8532 34.773 31.5835 35.0428 31.269 35.2473L18.4193 43.7027C18.1755 43.863 17.9093 43.9837 17.6301 44.0608C17.0211 44.224 16.3782 44.1903 15.7884 43.9643C15.1985 43.7382 14.69 43.3307 14.3316 42.7967C13.9386 42.223 13.755 41.5241 13.8134 40.824L13.8573 40.3318L13.3797 40.1822C11.5735 39.6195 9.87359 38.7425 8.35321 37.589L7.69493 37.0897L7.45294 37.8516C7.32302 38.2568 7.22042 38.6708 7.14586 39.0906C6.92567 40.3694 6.95503 41.6806 7.23223 42.9474C7.50942 44.2143 8.02887 45.4112 8.76009 46.468C9.95095 48.2406 11.64 49.5931 13.599 50.3429Z" fill="#FF3E00"/>
<path d="M257.394 43.516C255.215 43.516 253.295 43.0717 251.632 42.183C249.969 41.2943 248.665 40.0903 247.719 38.571C246.773 37.0517 246.071 35.4033 245.612 33.626C245.153 31.8487 244.924 29.9567 244.924 27.95C244.924 25.972 245.153 24.0943 245.612 22.317C246.099 20.511 246.816 18.8627 247.762 17.372C248.737 15.8527 250.041 14.6487 251.675 13.76C253.338 12.8427 255.244 12.384 257.394 12.384C262.095 12.384 265.335 14.19 267.112 17.802L263.758 19.522C262.955 18.318 262.067 17.415 261.092 16.813C260.146 16.1823 258.913 15.867 257.394 15.867C255.359 15.867 253.667 16.512 252.32 17.802C250.973 19.092 250.041 20.6113 249.525 22.36C249.038 24.08 248.794 25.9433 248.794 27.95C248.794 31.2467 249.525 34.0847 250.987 36.464C252.449 38.8147 254.585 39.99 257.394 39.99C260.203 39.99 262.382 38.7143 263.93 36.163L267.37 37.453C266.539 39.2877 265.292 40.764 263.629 41.882C261.966 42.9713 259.888 43.516 257.394 43.516Z" fill="#808080"/>
<path d="M296.908 43L294.328 35.647H282.374L279.837 43H275.924L286.588 12.9H290.071L300.735 43H296.908ZM293.167 32.336L289.297 21.199C288.81 19.7943 288.494 18.7767 288.351 18.146C288.036 19.264 287.72 20.2817 287.405 21.199L283.492 32.336H293.167Z" fill="#808080"/>
<path d="M337.164 43H333.423V24.51C333.423 23.3347 333.451 22.231 333.509 21.199C333.222 22.0017 332.778 23.134 332.176 24.596L323.92 43.516L315.922 24.51C315.234 22.8473 314.804 21.758 314.632 21.242C314.718 22.016 314.761 23.1053 314.761 24.51V43H311.02V12.9H314.546L323.275 33.153L324.049 35.174C324.163 34.83 324.421 34.1563 324.823 33.153L333.595 12.9H337.164V43Z" fill="#808080"/>
<path d="M350.267 43V12.9H361.791C363.54 12.9 365.059 13.158 366.349 13.674C367.668 14.19 368.686 14.8923 369.402 15.781C370.119 16.641 370.649 17.587 370.993 18.619C371.337 19.651 371.509 20.7547 371.509 21.93C371.509 24.3093 370.692 26.402 369.058 28.208C367.453 30.014 365.031 30.917 361.791 30.917H354.008V43H350.267ZM362.049 27.434C363.999 27.434 365.432 26.8893 366.349 25.8C367.295 24.7107 367.768 23.4207 367.768 21.93C367.768 20.468 367.324 19.178 366.435 18.06C365.547 16.942 364.085 16.383 362.049 16.383H354.008V27.434H362.049Z" fill="#808080"/>
<path d="M66.352 61.2H72.304C74.144 61.2 75.472 61.624 76.288 62.472C77.12 63.32 77.536 64.376 77.536 65.64C77.536 66.408 77.32 67.104 76.888 67.728C76.456 68.336 75.848 68.808 75.064 69.144C76.04 69.448 76.792 69.96 77.32 70.68C77.864 71.384 78.136 72.216 78.136 73.176C78.136 73.784 78.04 74.36 77.848 74.904C77.656 75.448 77.36 75.96 76.96 76.44C76.56 76.92 75.992 77.304 75.256 77.592C74.52 77.864 73.664 78 72.688 78H66.352V61.2ZM71.896 68.328C73.064 68.328 73.952 68.096 74.56 67.632C75.168 67.152 75.472 66.496 75.472 65.664C75.472 63.952 74.456 63.096 72.424 63.096H68.44V68.328H71.896ZM72.928 76.08C74.064 76.08 74.872 75.816 75.352 75.288C75.832 74.76 76.072 74.104 76.072 73.32C76.072 71.256 74.768 70.224 72.16 70.224H68.44V76.08H72.928Z" fill="#808080"/>
<path d="M85.582 78V61.2H95.566V63.168H87.67V68.328H92.878V70.296H87.67V76.008H96.094V78H85.582Z" fill="#808080"/>
<path d="M103.429 78V61.2H105.517V75.984H113.773V78H103.429Z" fill="#808080"/>
<path d="M126.372 78.288C125.14 78.288 124.052 78.048 123.108 77.568C122.18 77.072 121.436 76.408 120.876 75.576C120.332 74.744 119.924 73.824 119.652 72.816C119.38 71.808 119.244 70.736 119.244 69.6C119.244 68.48 119.388 67.416 119.676 66.408C119.964 65.384 120.388 64.464 120.948 63.648C121.508 62.816 122.252 62.152 123.18 61.656C124.124 61.16 125.188 60.912 126.372 60.912C127.796 60.912 128.916 61.176 129.732 61.704C130.564 62.232 131.26 62.952 131.82 63.864L129.948 64.944C129.5 64.288 129.004 63.784 128.46 63.432C127.916 63.064 127.22 62.88 126.372 62.88C125.652 62.88 125.004 63.016 124.428 63.288C123.852 63.56 123.38 63.92 123.012 64.368C122.644 64.8 122.332 65.312 122.076 65.904C121.836 66.496 121.66 67.104 121.548 67.728C121.452 68.336 121.404 68.96 121.404 69.6C121.404 71.488 121.82 73.08 122.652 74.376C123.484 75.656 124.724 76.296 126.372 76.296C127.508 76.296 128.42 75.944 129.108 75.24C129.796 74.52 130.14 73.584 130.14 72.432V71.76H127.092V69.84H132.324V71.856C132.324 73.888 131.764 75.472 130.644 76.608C129.54 77.728 128.116 78.288 126.372 78.288Z" fill="#808080"/>
<path d="M140.015 78V61.2H142.103V78H140.015Z" fill="#808080"/>
<path d="M156.242 78.288C152.226 78.288 150.218 76.088 150.218 71.688V61.2H152.306V71.688C152.306 73.4 152.658 74.6 153.362 75.288C154.066 75.976 155.026 76.32 156.242 76.32C157.458 76.32 158.418 75.976 159.122 75.288C159.842 74.6 160.202 73.4 160.202 71.688V61.2H162.29V71.688C162.29 76.088 160.274 78.288 156.242 78.288Z" fill="#808080"/>
<path d="M184.957 78H182.869V67.68C182.869 67.024 182.885 66.408 182.917 65.832C182.757 66.28 182.509 66.912 182.173 67.728L177.565 78.288L173.101 67.68C172.717 66.752 172.477 66.144 172.381 65.856C172.429 66.288 172.453 66.896 172.453 67.68V78H170.365V61.2H172.333L177.205 72.504L177.637 73.632C177.701 73.44 177.845 73.064 178.069 72.504L182.965 61.2H184.957V78Z" fill="#808080"/>
</svg>
